<svg width="24" height="21" viewBox="0 0 24 21" fill="none" xmlns="http://www.w3.org/2000/svg">
<path d="M2.08865 9.39197H22.9566C23.2333 9.39197 23.4987 9.5019 23.6944 9.69757C23.8901 9.89325 24 10.1586 24 10.4354C24 10.7121 23.8901 10.9775 23.6944 11.1732C23.4987 11.3688 23.2333 11.4788 22.9566 11.4788H2.08865C1.81193 11.4788 1.54654 11.3688 1.35086 11.1732C1.15519 10.9775 1.04526 10.7121 1.04526 10.4354C1.04526 10.1586 1.15519 9.89325 1.35086 9.69757C1.54654 9.5019 1.81193 9.39197 2.08865 9.39197Z" fill="white"/>
<path d="M2.52063 10.4353L11.1746 19.0871C11.3705 19.2831 11.4806 19.5488 11.4806 19.8259C11.4806 20.1029 11.3705 20.3687 11.1746 20.5646C10.9787 20.7605 10.7129 20.8706 10.4359 20.8706C10.1588 20.8706 9.89305 20.7605 9.69712 20.5646L0.306537 11.174C0.209369 11.0771 0.132277 10.962 0.0796766 10.8352C0.0270759 10.7084 0 10.5725 0 10.4353C0 10.2981 0.0270759 10.1622 0.0796766 10.0354C0.132277 9.90863 0.209369 9.79349 0.306537 9.69657L9.69712 0.30599C9.89305 0.110068 10.1588 0 10.4359 0C10.7129 0 10.9787 0.110068 11.1746 0.30599C11.3705 0.501912 11.4806 0.76764 11.4806 1.04472C11.4806 1.32179 11.3705 1.58752 11.1746 1.78344L2.52063 10.4353Z" fill="white"/>
</svg>
